<svg xmlns="http://www.w3.org/2000/svg" viewBox="0 0 43 43"><path d="M1 1h7v7h-7zM11 1h5v1h-1v1h-1v-1h-2v1h-1zM17 1h2v2h1v1h-3v-1h-1v-1h1zM20 1h1v1h-1zM22 1h1v1h1v2h-2v-1h-1v-1h1zM24 1h1v1h-1zM27 1h1v1h-1zM32 1h2v2h-1v-1h-1zM35 1h7v7h-7zM2 2v5h5v-5zM28 2h4v1h1v1h-2v-1h-1v1h-1v-1h-1zM36 2v5h5v-5zM3 3h3v3h-3zM9 3h2v1h-1v2h1v1h-1v2h-1zM13 3h1v1h-1zM25 3h1v1h1v1h1v1h1v-1h1v1h1v-1h2v-1h1v4h-1v-2h-1v2h-1v-1h-1v1h-1v-1h-1v1h-1v-1h-1v-2h-1zM27 3h1v1h-1zM37 3h3v3h-3zM12 4h1v1h-1zM14 4h2v1h-1v1h1v2h-1v-1h-1zM30 4h1v1h-1zM16 5h6v1h1v1h-1v1h1v1h-2v1h2v1h1v3h2v1h-3v1h1v2h-1v-1h-3v-1h1v-1h1v-1h1v-1h-1v-1h-1v-1h-2v1h-1v-1h-1v-2h-1v-1h1v-1h1v2h1v1h1v-2h1v-2h-2v1h-1v-1h-2zM23 5h2v1h-2zM12 6h1v1h-1zM11 7h1v1h1v-1h1v1h1v2h-1v-1h-3zM19 7h1v1h-1zM23 7h1v1h-1zM25 7h1v2h3v1h-1v1h1v-1h1v4h-4v-1h1v-3h-2v-1h-1v-1h1zM32 8h1v1h-1zM1 9h1v1h-1zM3 9h5v1h-1v1h-1v-1h-3zM23 9h1v1h-1zM30 9h1v1h-1zM35 9h5v2h-1v-1h-1v1h-1v-1h-1v1h-1v1h-1v1h1v1h3v1h-1v3h1v1h3v1h1v1h-2v-1h-1v3h-2v-1h1v-1h-1v-2h-1v1h-1v-2h1v-1h-1v-1h1v-1h-1v1h-1v-2h-1v1h-1v1h-2v-1h1v-1h1v-1h-1v-1h2v-1h-2v-1h4zM9 10h2v1h-1v1h-1zM12 10h1v2h1v2h-1v-1h-1v1h-2v-1h1v-1h1zM15 10h1v1h-1zM24 10h1v1h-1zM41 10h1v1h-1zM1 11h5v1h1v1h-1v1h1v1h-2v-1h-1v-1h1v-1h-4zM7 11h1v1h-1zM16 11h1v2h-1zM36 11h1v1h-1zM40 11h1v1h-1zM8 12h1v3h2v1h2v2h1v1h-2v-2h-1v2h-1v1h-1v1h-1v-1h-1v-1h1v-1h2v-2h-1v1h-1v-1h-1v-1h1v-1h-1v-1h1zM19 12h2v1h-2zM25 12h1v1h-1zM37 12h2v1h1v1h-2v-1h-1zM1 13h1v1h-1zM15 13h1v1h2v1h1v1h-3v-1h-2v-1h1zM41 13h1v2h-1zM2 14h1v2h-1v1h-1v-2h1zM12 14h1v1h-1zM19 14h1v1h-1zM26 15h1v1h-1zM28 15h1v2h-1v1h-1v1h-3v-1h2v-1h1v-1h1zM39 15h2v1h-2zM3 16h1v1h-1zM5 16h2v1h-2zM14 16h1v1h-1zM2 17h1v1h-1zM7 17h1v1h-1zM15 17h4v1h-2v2h-2zM29 17h2v1h-1v1h-1v1h-1v-2h1zM33 17h2v1h-1v2h1v1h-2v-2h-2v-1h2zM39 17h1v1h-1zM41 17h1v2h-1zM4 18h2v1h-1v1h1v1h2v1h-1v1h1v-1h1v2h1v-4h1v-1h1v2h-1v4h-2v1h-2v-1h1v-1h-1v1h-1v-2h-1v-1h-1v-1h-3v-2h1v1h1v-1h1zM19 18h4v2h2v1h-4v-2h-1v1h-1zM27 20h1v1h-1zM29 20h1v1h2v1h4v1h1v1h-2v-1h-1v2h-1v-2h-2v1h-1v-1h-1zM14 21h1v1h-1zM16 21h1v1h-1zM19 21h2v1h1v2h-1v-1h-1v-1h-1zM26 21h1v1h-1zM36 21h1v1h-1zM1 22h2v1h-1v2h-1zM15 22h1v1h-1zM17 22h2v1h-1v2h-1v-1h-1v-1h1zM23 22h2v1h-1v1h1v1h2v2h2v-1h1v1h1v-1h2v1h-1v1h-6v-2h-1v1h-1v-1h-1v-1h-1v-1h1zM27 22h1v1h1v1h-2zM40 22h2v1h-2zM3 23h1v1h1v2h-1v-1h-1zM14 23h1v1h-1zM15 24h1v1h-1zM29 24h1v1h-1zM37 24h1v1h-1zM41 24h1v1h-1zM2 25h1v1h1v1h1v1h1v1h3v2h1v1h-3v1h-3v-1h-1v-1h1v-1h1v2h1v-2h-1v-1h-2v1h-1v4h-1v-6h1v-1h-1v-1h1zM11 25h1v2h-1zM13 25h1v1h-1zM18 25h3v1h2v1h-3v1h-1v-1h-1zM30 25h1v1h-1zM38 25h2v1h-1v1h-2v1h-2v-2h3zM5 26h1v1h-1zM14 26h1v2h-1zM40 26h2v1h-1v1h-1zM7 27h2v1h-2zM16 27h2v1h-1v1h2v1h-1v1h-2v-1h-1v1h-2v-2h2v-1h1zM33 27h1v2h1v1h-2v1h-1v1h-1v-1h-1v-1h-2v1h-1v-1h-2v1h-3v-1h1v-1h-1v1h-1v1h-1v1h-1v-2h1v-2h4v1h1v-1h1v1h5v1h1v-2h1zM9 28h1v1h-1zM11 28h1v1h-1zM37 28h2v1h2v1h-1v1h1v2h-1v-1h-1v1h-1v1h1v-1h1v3h-1v1h-1v1h-1v1h1v1h1v1h-1v1h-2v-1h1v-1h-1v1h-1v-1h-1v-1h-2v-1h1v-1h-1v-2h1v-1h-1v-1h2v-2h1v-1h3v-1h-1zM7 30v1h1v-1zM10 30h1v1h-1zM41 30h1v1h-1zM15 31h1v1h-1zM26 31h1v1h-1zM28 31h1v1h-1zM37 31v1h-1v1h1v-1h1v-1zM10 32h1v1h-1zM12 32h1v1h-1zM17 32h1v1h1v1h2v1h-2v1h1v1h-2v-3h-5v-1h4zM21 32h2v1h-2zM24 32h1v1h-1zM7 33h3v1h1v1h1v1h-1v1h-1v1h1v1h-1v1h-1v-4h1v-1h-1v-1h-2zM23 33h1v1h-1zM26 33h1v1h-1zM28 33h1v1h-1zM30 33h1v1h1v1h-2v2h-1v-1h-1v-1h1v-1h1zM12 34h1v1h-1zM22 34h1v3h-1v-1h-1v-1h1zM24 34h2v1h-2zM27 34h1v1h-1zM34 34v3h3v-3zM41 34h1v1h-1zM1 35h7v7h-7zM14 35h3v3h-2v1h-3v-1h2v-1h2v-1h-2zM35 35h1v1h-1zM2 36v5h5v-5zM25 36h1v1h-1zM41 36h1v3h-2v-1h1zM3 37h3v3h-3zM23 37h1v1h-1zM26 37h1v1h1v1h1v-1h1v-1h2v1h-1v2h-1v1h1v1h-2v-2h-4v-1h-1v-1h2zM39 37h1v1h-1zM17 38h5v2h-1v-1h-3v1h-1v1h-1v-2h1zM35 38v1h1v-1zM38 38h1v1h-1zM23 39h1v2h-2v-1h1zM39 39h1v1h-1zM12 40h1v2h-4v-1h3zM20 40h1v1h-1zM31 40h1v1h-1zM33 40h1v1h-1zM40 40h1v1h-1zM14 41h2v1h-2zM26 41h2v1h-2zM32 41h1v1h-1zM34 41h1v1h-1zM39 41h1v1h-1z"/></svg>